<svg width="128" height="32" viewBox="0 0 128 32" fill="none" xmlns="http://www.w3.org/2000/svg">
<path d="M44.8 24.0006C44 24.0006 43.2 23.8006 42.4 23.6006C41.6 23.2006 41 22.8006 40.6 22.2006C40.2 21.6006 40 20.8006 40 19.8006C40 18.4006 40.4 17.4006 41.4 16.6006C42.4 15.8006 43.6 15.4006 45.6 15.4006H50V14.8006C50 14.2006 49.8 13.6006 49.6 13.2006C49.4 12.8006 49 12.6006 48.4 12.4006C48 12.2006 47.2 12.0006 46.2 12.0006C44.6 12.0006 43 12.2006 41.6 12.8006V10.4006C42.2 10.2006 43 10.0006 44 9.80058C44.8 9.60058 45.8 9.60059 46.8 9.60059C48.8 9.60059 50.4 10.0006 51.4 10.8006C52.4 11.6006 53 13.0006 53 14.8006V23.6006H50.2L50 22.4006C49.4 23.0006 48.8 23.4006 48 23.6006C47.2 23.8006 46.2 24.0006 44.8 24.0006ZM45.8 21.8006C46.8 21.8006 47.6 21.6006 48.2 21.4006C49 21.0006 49.4 20.6006 50 20.2006V17.8006H45.6C44.6 17.8006 44 18.0006 43.6 18.4006C43.2 18.8006 43 19.4006 43 20.0006C43 20.8006 43.2 21.2006 43.8 21.6006C44.2 21.6006 44.8 21.8006 45.8 21.8006Z" fill="#0934E0"/>
<path d="M59.9996 24C58.7996 24 57.9996 23.8 57.3996 23.2C56.7996 22.6 56.5996 21.8 56.5996 20.4V4H59.7996V20.2C59.7996 20.8 59.7996 21.2 59.9996 21.4C60.1996 21.6 60.3996 21.6 60.7996 21.6C61.1996 21.6 61.7996 21.6 62.1996 21.4V23.8C61.7996 24 61.3996 24 61.1996 24C60.7996 24 60.3996 24 59.9996 24Z" fill="#0934E0"/>
<path d="M71.2 24.0006C68.8 24.0006 66.8 23.4006 65.8 22.2006C64.6 21.0006 64 19.2006 64 16.8006C64 14.4006 64.6 12.8006 65.8 11.4006C67 10.2006 68.8 9.60059 71.2 9.60059C73.6 9.60059 75.6 10.2006 76.6 11.4006C77.8 12.6006 78.4 14.4006 78.4 16.8006C78.4 19.2006 77.8 20.8006 76.6 22.2006C75.6 23.4006 73.8 24.0006 71.2 24.0006ZM71.2 21.4006C72.6 21.4006 73.6 21.0006 74.2 20.4006C74.8 19.6006 75.2 18.6006 75.2 17.0006C75.2 15.4006 74.8 14.2006 74.2 13.6006C73.6 13.0006 72.6 12.6006 71.2 12.6006C69.8 12.6006 68.8 13.0006 68.2 13.6006C67.6 14.2006 67.2 15.4006 67.2 17.0006C67.2 18.6006 67.6 19.8006 68.2 20.4006C68.8 21.0006 69.8 21.4006 71.2 21.4006Z" fill="#0934E0"/>
<path d="M80.8008 27.9998V9.99981H83.6008L83.8008 11.3998C84.4008 10.7998 85.2008 10.3998 85.8008 10.1998C86.4008 9.99981 87.4008 9.7998 88.4008 9.7998C90.4008 9.7998 92.0008 10.3998 93.0008 11.3998C94.2008 12.3998 94.6008 14.1998 94.6008 16.7998C94.6008 19.1998 94.0008 21.1998 92.8008 22.3998C92.0008 23.3998 90.4008 23.9998 88.4008 23.9998C86.8008 23.9998 85.4008 23.5998 84.2008 22.7998V27.9998H80.8008ZM87.6008 21.5998C90.2008 21.5998 91.6008 19.9998 91.6008 16.5998C91.6008 14.9998 91.2008 13.7998 90.6008 13.1998C90.0008 12.3998 89.0008 11.9998 87.6008 11.9998C86.2008 11.9998 85.0008 12.3998 84.0008 13.3998V20.1998C84.4008 20.5998 85.0008 20.7998 85.4008 20.9998C86.2008 21.5998 86.8008 21.5998 87.6008 21.5998Z" fill="#0934E0"/>
<path d="M102.2 24.0006C101.4 24.0006 100.6 23.8006 99.8004 23.6006C99.0004 23.2006 98.4004 22.8006 98.0004 22.2006C97.6004 21.6006 97.4004 20.8006 97.4004 19.8006C97.4004 18.4006 97.8004 17.4006 98.8004 16.6006C99.8004 15.8006 101 15.4006 103 15.4006H107.4V14.8006C107.4 14.2006 107.2 13.6006 107 13.2006C106.8 12.8006 106.4 12.6006 105.8 12.4006C105.2 12.2006 104.4 12.2006 103.4 12.2006C101.8 12.2006 100.2 12.4006 98.8004 13.0006V10.4006C99.4004 10.2006 100.2 10.0006 101 9.80058C102 9.60058 103 9.60059 104 9.60059C106 9.60059 107.6 10.0006 108.6 10.8006C109.6 11.6006 110.2 13.0006 110.2 14.8006V23.6006H107.4L107.2 22.2006C106.6 22.8006 106 23.2006 105.2 23.4006C104.4 23.8006 103.4 24.0006 102.2 24.0006ZM103 21.8006C104 21.8006 104.8 21.6006 105.4 21.4006C106.2 21.0006 106.6 20.6006 107.2 20.2006V17.8006H102.8C101.8 17.8006 101.2 18.0006 100.8 18.4006C100.4 18.8006 100.2 19.4006 100.2 20.0006C100.2 20.8006 100.4 21.2006 101 21.6006C101.4 21.6006 102 21.8006 103 21.8006Z" fill="#0934E0"/>
<path d="M116.2 28C115.2 28 114.2 27.8 113.6 27.6V25.2C114 25.4 114.2 25.4 114.6 25.4C114.8 25.4 115.2 25.4 115.4 25.4C116 25.4 116.4 25.4 116.8 25.2C117.2 25 117.4 24.8 117.8 24.2C118 23.8 118.4 23.2 118.8 22.6L112.6 9H115.8L120.2 19.2L124.6 9H128L122.4 22C122 23.2 121.4 24.2 120.8 25C120.2 25.8 119.6 26.6 118.8 27C118.2 27.8 117.2 28 116.2 28Z" fill="#0934E0"/>
<path d="M20.7992 0H17.5992L15.9992 4.8L14.3992 0H11.1992L14.3992 9.6H17.5992L20.7992 0Z" fill="#0934E0" fill-opacity="0.52"/>
<path d="M11.1992 31.9994H14.3992L15.9992 27.1994L17.5992 31.9994H20.7992L17.5992 22.3994H14.3992L11.1992 31.9994Z" fill="#0934E0"/>
<path d="M0 11.2002V14.4002L4.8 16.0002L0 17.6002V20.8002L9.6 17.6002V14.4002L0 11.2002Z" fill="#0934E0" fill-opacity="0.76"/>
<path d="M32.0004 20.8002V17.6002L27.2004 16.0002L32.0004 14.4002V11.2002L22.4004 14.4002V17.6002L32.0004 20.8002Z" fill="#0934E0" fill-opacity="0.28"/>
<path d="M1.19922 23.9994L3.59922 26.1994L7.99922 23.9994L5.79922 28.3994L7.99922 30.5994L12.5992 21.5994L10.3992 19.3994L1.19922 23.9994Z" fill="#0934E0" fill-opacity="0.88"/>
<path d="M30.6004 8.0002L28.4004 5.8002L24.0004 8.0002L26.2004 3.6002L24.0004 1.2002L19.4004 10.4002L21.6004 12.6002L30.6004 8.0002Z" fill="#0934E0" fill-opacity="0.4"/>
<path d="M24.0004 30.5994L26.2004 28.3994L24.0004 23.9994L28.4004 26.1994L30.6004 23.9994L21.6004 19.3994L19.4004 21.5994L24.0004 30.5994Z" fill="#D6DEFF"/>
<path d="M7.99922 1.2002L5.79922 3.6002L7.99922 8.0002L3.59922 5.8002L1.19922 8.0002L10.3992 12.6002L12.5992 10.4002L7.99922 1.2002Z" fill="#0934E0" fill-opacity="0.64"/>
</svg>
