
<svg width="712" height="178" viewBox="0 0 712 178" fill="none" xmlns="http://www.w3.org/2000/svg">
<path d="M249.2 133.5C244.75 133.5 240.3 132.388 235.85 131.275C231.4 129.05 228.062 126.825 225.837 123.488C223.612 120.15 222.5 115.7 222.5 110.138C222.5 102.35 224.725 96.7879 230.288 92.3379C235.85 87.8879 242.525 85.6629 253.65 85.6629H278.125V82.3254C278.125 78.9879 277.012 75.6504 275.9 73.4254C274.787 71.2004 272.563 70.0879 269.225 68.9754C267 67.8629 262.55 66.7504 256.988 66.7504C248.088 66.7504 239.187 67.8629 231.4 71.2004V57.8504C234.737 56.7379 239.188 55.6254 244.75 54.5129C249.2 53.4004 254.762 53.4004 260.325 53.4004C271.45 53.4004 280.35 55.6254 285.913 60.0754C291.475 64.5254 294.812 72.3129 294.812 82.3254V131.275H279.237L278.125 124.6C274.787 127.938 271.45 130.163 267 131.275C262.55 132.388 256.987 133.5 249.2 133.5ZM254.762 121.263C260.325 121.263 264.775 120.15 268.112 119.038C272.562 116.813 274.787 114.588 278.125 112.363V99.0129H253.65C248.087 99.0129 244.75 100.125 242.525 102.35C240.3 104.575 239.188 107.913 239.188 111.25C239.188 115.7 240.3 117.925 243.637 120.15C245.862 120.15 249.2 121.263 254.762 121.263Z" fill="#0934E0"/>
<path d="M333.748 133.5C327.073 133.5 322.623 132.388 319.286 129.05C315.948 125.713 314.836 121.262 314.836 113.475V22.25H332.636V112.363C332.636 115.7 332.636 117.925 333.748 119.037C334.861 120.15 335.973 120.15 338.198 120.15C340.423 120.15 343.761 120.15 345.986 119.037V132.387C343.761 133.5 341.536 133.5 340.423 133.5C338.198 133.5 335.973 133.5 333.748 133.5Z" fill="#0934E0"/>
<path d="M396.05 133.5C382.7 133.5 371.575 130.163 366.013 123.488C359.338 116.813 356 106.8 356 93.4504C356 80.1004 359.338 71.2004 366.013 63.4129C372.688 56.7379 382.7 53.4004 396.05 53.4004C409.4 53.4004 420.525 56.7379 426.087 63.4129C432.762 70.0879 436.1 80.1004 436.1 93.4504C436.1 106.8 432.762 115.7 426.087 123.488C420.525 130.163 410.512 133.5 396.05 133.5ZM396.05 119.038C403.837 119.038 409.4 116.813 412.737 113.475C416.075 109.025 418.3 103.463 418.3 94.5629C418.3 85.6629 416.075 78.9879 412.737 75.6504C409.4 72.3129 403.837 70.0879 396.05 70.0879C388.262 70.0879 382.7 72.3129 379.362 75.6504C376.025 78.9879 373.8 85.6629 373.8 94.5629C373.8 103.463 376.025 110.138 379.362 113.475C382.7 116.813 388.262 119.038 396.05 119.038Z" fill="#0934E0"/>
<path d="M449.453 155.749V55.6242H465.028L466.141 63.4117C469.478 60.0742 473.928 57.8492 477.266 56.7367C480.603 55.6242 486.166 54.5117 491.728 54.5117C502.853 54.5117 511.753 57.8492 517.316 63.4117C523.991 68.9742 526.216 78.9867 526.216 93.4492C526.216 106.799 522.878 117.924 516.203 124.599C511.753 130.162 502.853 133.499 491.728 133.499C482.828 133.499 475.041 131.274 468.366 126.824V155.749H449.453ZM487.278 120.149C501.741 120.149 509.528 111.249 509.528 92.3367C509.528 83.4367 507.303 76.7617 503.966 73.4242C500.628 68.9742 495.066 66.7492 487.278 66.7492C479.491 66.7492 472.816 68.9742 467.253 74.5367V112.362C469.478 114.587 472.816 115.699 475.041 116.812C479.491 120.149 482.828 120.149 487.278 120.149Z" fill="#0934E0"/>
<path d="M568.489 133.5C564.039 133.5 559.589 132.388 555.139 131.275C550.689 129.05 547.352 126.825 545.127 123.488C542.902 120.15 541.789 115.7 541.789 110.138C541.789 102.35 544.014 96.7879 549.577 92.3379C555.139 87.8879 561.814 85.6629 572.939 85.6629H597.414V82.3254C597.414 78.9879 596.301 75.6504 595.189 73.4254C594.076 71.2004 591.852 70.0879 588.514 68.9754C585.177 67.8629 580.727 67.8629 575.164 67.8629C566.264 67.8629 557.364 68.9754 549.577 72.3129V57.8504C552.914 56.7379 557.364 55.6254 561.814 54.5129C567.377 53.4004 572.939 53.4004 578.502 53.4004C589.626 53.4004 598.526 55.6254 604.089 60.0754C609.651 64.5254 612.989 72.3129 612.989 82.3254V131.275H597.414L596.301 123.488C592.964 126.825 589.626 129.05 585.176 130.163C580.726 132.388 575.164 133.5 568.489 133.5ZM572.939 121.263C578.502 121.263 582.952 120.15 586.289 119.038C590.739 116.813 592.964 114.588 596.301 112.363V99.0129H571.827C566.264 99.0129 562.927 100.125 560.702 102.35C558.477 104.575 557.364 107.913 557.364 111.25C557.364 115.7 558.477 117.925 561.814 120.15C564.039 120.15 567.377 121.263 572.939 121.263Z" fill="#0934E0"/>
<path d="M646.361 155.75C640.798 155.75 635.236 154.637 631.898 153.525V140.175C634.123 141.288 635.236 141.288 637.461 141.288C638.573 141.288 640.798 141.288 641.911 141.288C645.248 141.288 647.473 141.288 649.698 140.175C651.923 139.063 653.036 137.95 655.261 134.613C656.373 132.388 658.598 129.05 660.823 125.713L626.336 50.0625H644.136L668.611 106.8L693.086 50.0625H711.998L680.848 122.375C678.623 129.05 675.286 134.613 671.948 139.062C668.611 143.512 665.273 147.963 660.823 150.188C657.486 154.637 651.923 155.75 646.361 155.75Z" fill="#0934E0"/>
<path d="M115.697 0H97.8969L88.9969 26.7L80.0969 0H62.2969L80.0969 53.4H97.8969L115.697 0Z" fill="#0934E0" fill-opacity="0.52"/>
<path d="M62.2969 178H80.0969L88.9969 151.3L97.8969 178H115.697L97.8969 124.6H80.0969L62.2969 178Z" fill="#0934E0"/>
<path d="M0 62.3008V80.1008L26.7 89.0008L0 97.9008V115.701L53.4 97.9008V80.1008L0 62.3008Z" fill="#0934E0" fill-opacity="0.76"/>
<path d="M178.002 115.701V97.9008L151.302 89.0008L178.002 80.1008V62.3008L124.602 80.1008V97.9008L178.002 115.701Z" fill="#0934E0" fill-opacity="0.28"/>
<path d="M6.67188 133.5L20.0219 145.737L44.4969 133.5L32.2594 157.975L44.4969 170.212L70.0844 120.15L57.8469 107.912L6.67188 133.5Z" fill="#0934E0" fill-opacity="0.88"/>
<path d="M170.214 44.5008L157.977 32.2633L133.502 44.5008L145.739 20.0258L133.502 6.67578L107.914 57.8508L120.152 70.0883L170.214 44.5008Z" fill="#0934E0" fill-opacity="0.4"/>
<path d="M133.502 170.212L145.739 157.975L133.502 133.5L157.977 145.737L170.214 133.5L120.152 107.912L107.914 120.15L133.502 170.212Z" fill="#D6DEFF"/>
<path d="M44.4969 6.67578L32.2594 20.0258L44.4969 44.5008L20.0219 32.2633L6.67188 44.5008L57.8469 70.0883L70.0844 57.8508L44.4969 6.67578Z" fill="#0934E0" fill-opacity="0.64"/>
</svg>
